<svg xmlns="http://www.w3.org/2000/svg" viewBox="0 0 509.34 637.53">
  <defs>
    <style>
      .a {
        fill: #1b7fad;
      }

      .b, .o {
        font-size: 12px;
      }

      .b, .h, .o {
        fill: #fff;
        font-family: MyriadPro-Regular, Myriad Pro;
      }

      .c {
        letter-spacing: -0.02em;
      }

      .d {
        fill: #e5e5e4;
      }

      .e, .r, .s, .t, .u, .v, .w {
        fill: none;
        stroke-miterlimit: 10;
      }

      .e {
        stroke: #7c7c7c;
        stroke-width: 2px;
      }

      .f {
        fill: #7c7c7c;
      }

      .g {
        fill: #3e3e3e;
      }

      .h {
        font-size: 24px;
      }

      .i {
        letter-spacing: -0.02em;
      }

      .j {
        letter-spacing: -0.01em;
      }

      .k {
        letter-spacing: 0.01em;
      }

      .l {
        letter-spacing: -0.01em;
      }

      .m {
        letter-spacing: 0em;
      }

      .n {
        letter-spacing: 0em;
      }

      .o {
        letter-spacing: 0.02em;
      }

      .p {
        letter-spacing: 0em;
      }

      .q {
        letter-spacing: -0.05em;
      }

      .r {
        stroke: #565656;
      }

      .r, .s, .t, .u, .v, .w {
        stroke-width: 4px;
      }

      .s {
        stroke: #f7931e;
      }

      .t {
        stroke: #fcee21;
      }

      .u {
        stroke: #4130e2;
      }

      .v {
        stroke: #b3b3b3;
      }

      .w {
        stroke: #e22424;
      }
    </style>
  </defs>
  <title>duckuino_pinout</title>
  <g>
    <g>
      <g>
        <path class="a" d="M8,0V227H334V0ZM316,169a8,8,0,1,1,8-8A8,8,0,0,1,316,169Zm0-19a8,8,0,1,1,8-8A8,8,0,0,1,316,150Zm0-19a8,8,0,1,1,8-8A8,8,0,0,1,316,131Zm0-19a8,8,0,1,1,8-8A8,8,0,0,1,316,112Zm0-19a8,8,0,1,1,8-8A8,8,0,0,1,316,93Zm0-19a8,8,0,1,1,8-8A8,8,0,0,1,316,74Z"/>
        <text class="b" transform="translate(277 69.67)">CS</text>
        <text class="b" transform="translate(277 88.67)">SCK</text>
        <text class="b" transform="translate(277 107.67)">MOSI</text>
        <text class="b" transform="translate(277 126.67)">MISO</text>
        <text class="b" transform="translate(277 145.67)">V<tspan class="c" x="6.7" y="0">C</tspan><tspan x="13.4" y="0">C</tspan></text>
        <text class="b" transform="translate(277 164.67)">GND</text>
      </g>
      <g>
        <path class="d" d="M209,9V218H0V183a70,70,0,0,0,70-70A70,70,0,0,0,0,43V9Z"/>
        <polyline class="e" points="113 178 63 195 63 205 113 205"/>
        <rect class="f" x="101" y="15" width="48" height="8"/>
        <rect class="f" x="101" y="9" width="48" height="4"/>
      </g>
    </g>
    <g>
      <g>
        <path class="a" d="M8,303V513H396V303ZM22,506a8,8,0,1,1,8-8A8,8,0,0,1,22,506Zm0-180a8,8,0,1,1,8-8A8,8,0,0,1,22,326ZM52,506a8,8,0,1,1,8-8A8,8,0,0,1,52,506Zm0-180a8,8,0,1,1,8-8A8,8,0,0,1,52,326ZM82,506a8,8,0,1,1,8-8A8,8,0,0,1,82,506Zm0-180a8,8,0,1,1,8-8A8,8,0,0,1,82,326Zm30,180a8,8,0,1,1,8-8A8,8,0,0,1,112,506Zm0-180a8,8,0,1,1,8-8A8,8,0,0,1,112,326Zm30,180a8,8,0,1,1,8-8A8,8,0,0,1,142,506Zm0-180a8,8,0,1,1,8-8A8,8,0,0,1,142,326Zm30,180a8,8,0,1,1,8-8A8,8,0,0,1,172,506Zm0-180a8,8,0,1,1,8-8A8,8,0,0,1,172,326Zm30,180a8,8,0,1,1,8-8A8,8,0,0,1,202,506Zm0-180a8,8,0,1,1,8-8A8,8,0,0,1,202,326Zm30,180a8,8,0,1,1,8-8A8,8,0,0,1,232,506Zm0-180a8,8,0,1,1,8-8A8,8,0,0,1,232,326Zm29,180a8,8,0,1,1,8-8A8,8,0,0,1,261,506Zm0-180a8,8,0,1,1,8-8A8,8,0,0,1,261,326Zm30,180a8,8,0,1,1,8-8A8,8,0,0,1,291,506Zm0-180a8,8,0,1,1,8-8A8,8,0,0,1,291,326Zm30,180a8,8,0,1,1,8-8A8,8,0,0,1,321,506Zm0-180a8,8,0,1,1,8-8A8,8,0,0,1,321,326Zm30,180a8,8,0,1,1,8-8A8,8,0,0,1,351,506Zm0-180a8,8,0,1,1,8-8A8,8,0,0,1,351,326Z"/>
        <rect class="g" x="130.28" y="365.28" width="83.44" height="83.44" transform="translate(338.17 -2.41) rotate(45)"/>
        <text class="h" transform="translate(15.39 359.78) rotate(90)"><tspan class="i">P</tspan><tspan class="j" x="12.38" y="0">r</tspan><tspan x="19.99" y="0">o </tspan><tspan class="k" x="38.26" y="0">M</tspan><tspan x="57.84" y="0">ic</tspan><tspan class="l" x="74.21" y="0">r</tspan><tspan class="m" x="81.81" y="0">o</tspan></text>
        <text class="b" transform="translate(18.92 339.67)">9</text>
        <text class="b" transform="translate(48.92 339.67)">8</text>
        <text class="b" transform="translate(78.92 339.67)">7</text>
        <text class="b" transform="translate(108.92 339.67)">6</text>
        <text class="b" transform="translate(138.92 339.67)">5</text>
        <text class="b" transform="translate(168.92 339.67)">4</text>
        <text class="b" transform="translate(198.92 339.67)">3</text>
        <text class="b" transform="translate(228.92 339.67)">2</text>
        <text class="b" transform="translate(249.18 339.67)">GND</text>
        <text class="b" transform="translate(279.18 339.67)">GND</text>
        <text class="b" transform="translate(312.88 339.67)"><tspan class="n">R</tspan><tspan x="6.52" y="0">XI</tspan></text>
        <text class="o" transform="translate(341.38 339.67)">T<tspan class="p" x="6.23" y="0">X0</tspan></text>
        <text class="b" transform="translate(15.84 484.67)">10</text>
        <text class="b" transform="translate(45.84 484.67)">16</text>
        <text class="b" transform="translate(75.84 484.67)">14</text>
        <text class="b" transform="translate(105.84 484.67)">15</text>
        <text class="b" transform="translate(135.25 484.67)">A0</text>
        <text class="b" transform="translate(165.25 484.67)">A1</text>
        <text class="b" transform="translate(195.25 484.67)">A2</text>
        <text class="b" transform="translate(225.25 484.67)">A3</text>
        <text class="b" transform="translate(250.82 484.67)">V<tspan class="c" x="6.7" y="0">C</tspan><tspan x="13.4" y="0">C</tspan></text>
        <text class="b" transform="translate(281.83 484.67)">RST</text>
        <text class="b" transform="translate(309.18 484.67)">GND</text>
        <text class="b" transform="translate(339.31 484.67)"><tspan class="n">R</tspan><tspan class="q" x="6.52" y="0">A</tspan><tspan x="13.22" y="0">W</tspan></text>
      </g>
      <g>
        <rect class="d" x="349" y="366" width="60" height="83"/>
        <rect class="f" x="379" y="373" width="18" height="12"/>
        <rect class="f" x="379" y="429" width="18" height="12"/>
      </g>
    </g>
    <path class="r" d="M171,317C473.32,211.22,442.44,108.2,316,66"/>
    <path class="s" d="M313,82c406.62,530.22,94.19,649-201,417"/>
    <path class="t" d="M316,104C718,578.55,215.42,798.89,52,498"/>
    <path class="u" d="M315,121C687.77,593.86,209.5,723.39,82,497"/>
    <path class="v" d="M314,140c206.34,251.47,97.43,511-53,357"/>
    <path class="w" d="M315,159c0,87.33-24.6,158-55,158"/>
  </g>
</svg>
